<?xml version="1.0" standalone="no"?>
<!DOCTYPE svg PUBLIC "-//W3C//DTD SVG 20010904//EN"
 "http://www.w3.org/TR/2001/REC-SVG-20010904/DTD/svg10.dtd">
<svg version="1.0" xmlns="http://www.w3.org/2000/svg"
 width="364.000000pt" height="310.000000pt" viewBox="0 0 364.000000 310.000000"
 preserveAspectRatio="xMidYMid meet">

<g transform="translate(0.000000,310.000000) scale(0.100000,-0.100000)"
fill="#000000" stroke="none">
<path d="M1365 2936 c-70 -31 -92 -98 -53 -156 13 -19 38 -42 55 -50 29 -13
37 -27 73 -129 22 -63 38 -116 35 -120 -3 -3 -33 -15 -65 -27 -135 -49 -266
-141 -345 -244 -100 -130 -147 -266 -146 -429 1 -342 252 -630 622 -716 94
-21 317 -21 406 0 88 21 232 92 306 150 109 87 201 229 236 367 94 369 -122
753 -496 883 -92 32 -227 48 -340 40 -51 -4 -93 -4 -93 -2 0 3 -18 55 -39 116
l-40 110 21 26 c25 32 33 92 16 124 -29 55 -100 81 -153 57z m130 -66 c14 -44
-53 -71 -75 -30 -12 22 0 55 22 63 19 7 46 -10 53 -33z m329 -505 l21 -20 -31
-32 -31 -31 -27 34 -27 34 28 35 c24 30 29 32 36 17 5 -9 19 -26 31 -37z m285
-32 c49 -29 131 -100 131 -115 0 -24 -33 -17 -69 15 -47 42 -108 79 -181 107
-66 26 -66 26 -51 44 11 13 20 12 68 -5 31 -10 77 -31 102 -46z m-689 -28 c0
-7 16 -26 35 -42 l35 -29 -29 -17 c-16 -9 -34 -31 -41 -48 l-13 -31 -17 31
c-9 18 -28 40 -43 50 l-26 17 28 17 c16 9 34 30 41 47 12 29 30 32 30 5z m639
-94 c18 -18 18 -19 -2 -39 l-20 -21 -18 22 c-16 20 -16 24 -2 40 20 21 19 21
42 -2z m-379 -11 c0 -5 -4 -10 -10 -10 -5 0 -10 5 -10 10 0 6 5 10 10 10 6 0
10 -4 10 -10z m-499 -157 c8 -9 26 -24 41 -33 l28 -17 -38 -24 c-20 -13 -46
-42 -58 -65 l-20 -41 -18 43 c-11 28 -31 51 -53 65 l-34 22 39 23 c30 18 45
36 58 70 l17 45 12 -36 c7 -19 19 -43 26 -52z m874 6 c62 -29 122 -99 141
-166 27 -92 54 -235 54 -286 0 -91 -43 -152 -109 -152 -55 0 -87 27 -149 125
-32 49 -66 94 -78 100 -26 14 -227 20 -272 8 -27 -8 -44 -26 -96 -106 -39 -60
-73 -102 -90 -110 -92 -42 -176 26 -176 142 0 73 30 256 52 314 24 63 83 127
130 141 18 5 149 10 291 10 242 1 260 0 302 -20z m229 2 c17 -18 17 -20 -4
-41 l-21 -21 -19 23 c-17 21 -17 25 -3 41 20 22 26 21 47 -2z m118 -283 c-17
-17 -46 8 -29 27 10 11 14 11 27 -1 11 -10 11 -17 2 -26z m-1288 -105 c4 -9 1
-23 -7 -30 -12 -12 -16 -12 -27 1 -10 13 -10 19 0 31 16 19 26 19 34 -2z m81
-303 c-5 -8 -11 -8 -17 -2 -6 6 -7 16 -3 22 5 8 11 8 17 2 6 -6 7 -16 3 -22z
m825 -10 c0 -5 10 -19 23 -32 l23 -23 -33 -32 c-18 -17 -33 -27 -33 -22 0 6
-11 21 -24 34 l-25 25 27 29 c29 30 42 37 42 21z m-453 -55 c18 -19 17 -21
-14 -53 l-32 -33 -15 30 c-9 16 -21 31 -28 33 -9 3 -3 16 17 40 27 32 31 34
42 19 7 -9 20 -25 30 -36z"/>
<path d="M1481 1961 c-6 -11 -11 -29 -11 -40 0 -18 -6 -21 -39 -21 -33 0 -40
-4 -45 -25 -10 -40 9 -65 49 -65 32 0 35 -2 35 -30 0 -61 83 -65 94 -5 6 30
10 34 44 37 34 3 37 6 40 37 4 38 -9 51 -50 51 -24 0 -28 4 -28 29 0 33 -8 41
-50 47 -21 4 -31 0 -39 -15z"/>
<path d="M1962 1968 c-18 -18 -15 -42 7 -62 24 -22 59 -17 77 9 12 18 11 24
-2 43 -17 24 -62 30 -82 10z"/>
<path d="M1682 1918 c7 -20 58 -23 58 -4 0 11 -10 16 -31 16 -20 0 -29 -4 -27
-12z"/>
<path d="M1790 1915 c0 -12 7 -15 25 -13 14 2 26 8 26 13 0 6 -12 11 -26 13
-18 2 -25 -1 -25 -13z"/>
<path d="M2078 1888 c-39 -33 -19 -88 32 -88 29 0 47 26 41 60 -3 17 -29 40
-46 40 -6 0 -18 -6 -27 -12z"/>
<path d="M1875 1870 c-24 -27 -13 -68 22 -76 33 -9 57 6 61 38 6 50 -49 76
-83 38z"/>
<path d="M1977 1779 c-33 -46 19 -97 68 -65 29 19 32 46 7 69 -25 23 -58 21
-75 -4z"/>
<path d="M1862 2917 c-31 -33 -29 -81 4 -112 36 -33 69 -32 106 5 25 26 29 36
24 63 -12 65 -91 90 -134 44z"/>
<path d="M2158 2875 c-10 -22 -9 -29 10 -47 18 -19 25 -20 47 -10 16 8 25 20
25 35 0 50 -62 66 -82 22z"/>
<path d="M852 2810 c-28 -26 -29 -80 -4 -103 23 -21 71 -22 100 -1 30 21 29
68 -3 99 -29 30 -64 32 -93 5z"/>
<path d="M1105 2718 c-164 -130 -290 -299 -350 -469 -9 -23 -24 -48 -34 -55
-29 -21 -46 -123 -46 -274 1 -143 11 -207 52 -335 83 -259 261 -473 498 -599
64 -34 33 -34 -64 -1 -106 36 -218 99 -305 172 -60 50 -82 64 -104 61 -21 -2
-28 -9 -30 -29 -3 -22 10 -37 70 -88 245 -209 561 -290 978 -251 275 26 481
110 647 264 131 122 223 279 258 441 31 145 35 148 31 20 -3 -99 -9 -135 -31
-200 -43 -125 -101 -220 -192 -314 -29 -30 -53 -61 -53 -68 0 -15 28 -43 43
-43 24 0 163 158 204 231 113 201 147 453 88 651 -19 67 -19 75 3 55 47 -42
101 -3 68 48 -32 49 -214 261 -258 302 -91 83 -243 183 -278 183 -6 0 19 -28
56 -62 113 -107 194 -237 236 -385 32 -110 32 -304 0 -416 -41 -144 -99 -246
-200 -350 -149 -153 -320 -233 -550 -258 -93 -10 -126 -10 -224 4 -234 34
-409 116 -561 264 -161 156 -247 358 -247 575 0 156 40 282 131 417 92 138
220 247 377 322 62 30 71 44 56 83 -8 22 -32 20 -90 -5 -132 -58 -283 -184
-392 -327 -30 -40 -57 -70 -60 -68 -7 7 58 141 101 208 45 69 135 168 202 221
55 43 67 63 53 90 -13 25 -38 21 -83 -15z"/>
<path d="M1765 2669 c-145 -11 -175 -17 -182 -36 -10 -25 16 -32 127 -31 118
0 162 -4 330 -34 272 -47 484 -149 683 -327 87 -78 105 -88 124 -68 23 23 8
50 -65 115 -132 117 -317 231 -467 289 -25 10 -15 11 70 10 98 -2 100 -2 103
22 2 13 -1 28 -7 34 -27 27 -477 44 -716 26z"/>
<path d="M2602 2561 c-23 -14 -10 -46 18 -46 16 0 26 6 28 19 3 16 -12 36 -28
36 -3 0 -11 -4 -18 -9z"/>
<path d="M724 2546 c-3 -8 -4 -25 -2 -38 2 -18 10 -24 36 -26 26 -3 34 1 41
20 13 34 -4 58 -40 58 -16 0 -32 -6 -35 -14z"/>
<path d="M579 2301 c-20 -16 -22 -23 -14 -47 18 -51 95 -42 95 11 0 22 -28 55
-47 55 -6 0 -21 -9 -34 -19z"/>
<path d="M2881 1726 c-26 -31 14 -71 45 -45 8 7 14 22 12 33 -4 26 -40 33 -57
12z"/>
<path d="M2850 1490 c-9 -16 -8 -25 1 -36 26 -32 84 0 62 34 -16 26 -50 27
-63 2z"/>
<path d="M666 1364 c-20 -20 -21 -68 -1 -84 19 -16 61 -16 80 0 20 16 19 64
-1 84 -8 9 -26 16 -39 16 -13 0 -31 -7 -39 -16z"/>
<path d="M2328 953 c-22 -5 -35 -50 -21 -72 13 -20 50 -26 69 -11 19 16 18 55
-2 74 -16 17 -17 17 -46 9z"/>
<path d="M429 711 c-16 -11 -17 -63 -3 -348 l6 -123 54 0 54 0 0 123 1 122 22
-30 c12 -16 42 -52 68 -79 l46 -49 56 83 c65 97 66 96 70 -65 l2 -99 30 -6
c17 -3 41 -3 55 0 l25 6 -4 149 c-2 83 -5 161 -6 175 -2 14 -4 51 -4 83 l-1
57 -55 0 -54 0 -47 -72 c-25 -40 -51 -83 -57 -95 -6 -13 -15 -23 -21 -23 -6 0
-42 43 -80 95 -38 52 -76 95 -85 95 -9 0 -25 2 -36 5 -11 3 -27 1 -36 -4z"/>
<path d="M1911 709 c-69 -14 -111 -64 -111 -134 0 -63 30 -101 105 -135 55
-25 65 -33 65 -54 0 -47 -60 -60 -123 -26 l-37 20 -20 -32 c-27 -45 -22 -59
30 -86 148 -74 311 49 242 185 -23 44 -47 63 -105 84 -41 15 -61 38 -51 63 8
20 54 29 87 17 29 -11 34 -8 47 39 6 21 4 32 -6 41 -21 17 -83 26 -123 18z"/>
<path d="M1090 699 c-36 -15 -88 -68 -113 -114 -29 -55 -29 -155 0 -211 91
-172 311 -180 396 -14 25 49 28 63 24 123 -5 82 -41 146 -105 191 -36 25 -54
31 -110 33 -37 2 -78 -2 -92 -8z m165 -143 c59 -90 20 -207 -69 -206 -67 1
-116 56 -116 130 0 115 126 167 185 76z"/>
<path d="M2095 701 c-6 -11 23 -440 31 -453 6 -9 65 -11 88 -2 13 5 15 23 10
122 l-6 117 43 -45 c24 -25 75 -80 115 -122 51 -55 79 -78 95 -78 51 0 52 6
44 171 -4 85 -10 186 -14 224 l-6 70 -50 0 -50 0 3 -122 c2 -68 1 -123 -2
-123 -3 0 -53 56 -111 125 -102 120 -108 125 -145 125 -21 0 -41 -4 -45 -9z"/>
<path d="M2558 698 c-5 -14 20 -414 27 -435 5 -15 290 -19 299 -4 3 4 2 28 -2
52 l-8 44 -94 0 -95 0 -3 38 c-2 20 0 37 5 38 4 1 41 2 81 3 39 1 76 6 81 12
15 16 1 84 -18 85 -9 0 -47 2 -86 2 l-70 2 -3 38 -3 37 96 0 96 0 -3 48 -3 47
-146 3 c-112 2 -148 -1 -151 -10z"/>
<path d="M2900 665 c0 -53 15 -64 75 -57 l43 4 7 -53 c3 -30 10 -106 14 -171
5 -64 12 -121 15 -127 9 -13 65 -14 85 -2 12 8 13 31 3 158 -17 213 -22 193
43 193 l55 0 0 50 0 50 -170 0 -170 0 0 -45z"/>
<path d="M1435 689 c-9 -14 15 -432 25 -442 4 -5 27 -7 51 -5 l44 3 0 70 1 70
64 8 c36 4 78 16 95 25 92 54 89 196 -5 259 -30 21 -45 23 -151 23 -73 0 -120
-4 -124 -11z m223 -101 c40 -51 10 -98 -63 -98 -40 0 -45 3 -46 23 -1 12 -3
37 -5 55 l-4 32 54 0 c31 0 58 -5 64 -12z"/>
</g>
</svg>
